G75*
G70*
%OFA0B0*%
%FSLAX24Y24*%
%IPPOS*%
%LPD*%
%AMOC8*
5,1,8,0,0,1.08239X$1,22.5*
%
%ADD10C,0.0740*%
%ADD11C,0.0100*%
%ADD12C,0.0396*%
D10*
X000680Y000750D03*
X000680Y001750D03*
X000680Y002750D03*
X000680Y003750D03*
X000680Y004750D03*
D11*
X001180Y000849D02*
X001180Y000700D01*
X008730Y000700D01*
X008730Y002024D01*
X008536Y002024D01*
X008508Y002036D01*
X008508Y001935D01*
X008458Y001814D01*
X008366Y001722D01*
X008245Y001672D01*
X008115Y001672D01*
X008109Y001674D01*
X007505Y001070D01*
X003105Y001070D01*
X003000Y001175D01*
X003000Y003219D01*
X002994Y003222D01*
X002902Y003314D01*
X002852Y003435D01*
X002852Y003565D01*
X002902Y003686D01*
X002994Y003778D01*
X003115Y003828D01*
X003245Y003828D01*
X003352Y003784D01*
X003352Y003815D01*
X003402Y003936D01*
X003494Y004028D01*
X003615Y004078D01*
X003745Y004078D01*
X003866Y004028D01*
X003958Y003936D01*
X004008Y003815D01*
X004008Y003685D01*
X004006Y003680D01*
X004345Y003680D01*
X004244Y003722D01*
X004152Y003814D01*
X004102Y003935D01*
X004102Y004065D01*
X004152Y004186D01*
X004244Y004278D01*
X004365Y004328D01*
X004495Y004328D01*
X004616Y004278D01*
X004708Y004186D01*
X004711Y004180D01*
X007505Y004180D01*
X007609Y004076D01*
X007615Y004078D01*
X007745Y004078D01*
X007866Y004028D01*
X007958Y003936D01*
X008008Y003815D01*
X008008Y003685D01*
X007958Y003564D01*
X007866Y003472D01*
X007745Y003422D01*
X007615Y003422D01*
X007494Y003472D01*
X007402Y003564D01*
X007352Y003685D01*
X007352Y003815D01*
X007354Y003820D01*
X005265Y003820D01*
X005366Y003778D01*
X005458Y003686D01*
X005508Y003565D01*
X005508Y003435D01*
X005458Y003314D01*
X005366Y003222D01*
X005245Y003172D01*
X005115Y003172D01*
X004994Y003222D01*
X004902Y003314D01*
X004899Y003320D01*
X003855Y003320D01*
X003751Y003424D01*
X003745Y003422D01*
X003615Y003422D01*
X003508Y003466D01*
X003508Y003435D01*
X003458Y003314D01*
X003366Y003222D01*
X003360Y003219D01*
X003360Y001430D01*
X007355Y001430D01*
X007854Y001929D01*
X007852Y001935D01*
X007852Y002065D01*
X007902Y002186D01*
X007994Y002278D01*
X008087Y002317D01*
X008065Y002339D01*
X007954Y002606D01*
X007954Y002894D01*
X008065Y003161D01*
X008269Y003365D01*
X008536Y003476D01*
X008730Y003476D01*
X008730Y004800D01*
X001180Y004800D01*
X001180Y004651D01*
X001104Y004467D01*
X000963Y004326D01*
X000798Y004258D01*
X000802Y004257D01*
X000880Y004232D01*
X000953Y004195D01*
X001019Y004147D01*
X001077Y004089D01*
X001125Y004023D01*
X001162Y003950D01*
X001187Y003872D01*
X001199Y003800D01*
X000730Y003800D01*
X000730Y003700D01*
X001199Y003700D01*
X001187Y003628D01*
X001162Y003550D01*
X001125Y003477D01*
X001077Y003411D01*
X001019Y003353D01*
X000953Y003305D01*
X000880Y003268D01*
X000802Y003243D01*
X000798Y003242D01*
X000963Y003174D01*
X001104Y003033D01*
X001180Y002849D01*
X001180Y002651D01*
X001104Y002467D01*
X000963Y002326D01*
X000779Y002250D01*
X000630Y002250D01*
X000630Y002250D01*
X000779Y002250D01*
X000963Y002174D01*
X001104Y002033D01*
X001180Y001849D01*
X001180Y001651D01*
X001104Y001467D01*
X000963Y001326D01*
X000779Y001250D01*
X000630Y001250D01*
X000630Y001250D01*
X000779Y001250D01*
X000963Y001174D01*
X001104Y001033D01*
X001180Y000849D01*
X001180Y000841D02*
X008730Y000841D01*
X008730Y000940D02*
X001143Y000940D01*
X001099Y001038D02*
X008730Y001038D01*
X008730Y001137D02*
X007571Y001137D01*
X007670Y001235D02*
X008730Y001235D01*
X008730Y001334D02*
X007768Y001334D01*
X007867Y001432D02*
X008730Y001432D01*
X008730Y001531D02*
X007965Y001531D01*
X008064Y001629D02*
X008730Y001629D01*
X008730Y001728D02*
X008372Y001728D01*
X008463Y001826D02*
X008730Y001826D01*
X008730Y001925D02*
X008504Y001925D01*
X008508Y002023D02*
X008730Y002023D01*
X008180Y002000D02*
X007430Y001250D01*
X003180Y001250D01*
X003180Y003500D01*
X002866Y003599D02*
X001178Y003599D01*
X001198Y003698D02*
X002913Y003698D01*
X003037Y003796D02*
X000730Y003796D01*
X001140Y003993D02*
X003459Y003993D01*
X003385Y003895D02*
X001180Y003895D01*
X001074Y004092D02*
X004113Y004092D01*
X004102Y003993D02*
X003901Y003993D01*
X003975Y003895D02*
X004119Y003895D01*
X004170Y003796D02*
X004008Y003796D01*
X004008Y003698D02*
X004303Y003698D01*
X003930Y003500D02*
X005180Y003500D01*
X005494Y003599D02*
X007387Y003599D01*
X007352Y003698D02*
X005447Y003698D01*
X005323Y003796D02*
X007352Y003796D01*
X007430Y004000D02*
X007680Y003750D01*
X007975Y003895D02*
X008730Y003895D01*
X008730Y003993D02*
X007901Y003993D01*
X007593Y004092D02*
X008730Y004092D01*
X008730Y004190D02*
X004704Y004190D01*
X004591Y004289D02*
X008730Y004289D01*
X008730Y004387D02*
X001024Y004387D01*
X001112Y004486D02*
X008730Y004486D01*
X008730Y004584D02*
X001152Y004584D01*
X001180Y004683D02*
X008730Y004683D01*
X008730Y004781D02*
X001180Y004781D01*
X000872Y004289D02*
X004269Y004289D01*
X004156Y004190D02*
X000959Y004190D01*
X001136Y003501D02*
X002852Y003501D01*
X002865Y003402D02*
X001067Y003402D01*
X000949Y003304D02*
X002912Y003304D01*
X003000Y003205D02*
X000888Y003205D01*
X001031Y003107D02*
X003000Y003107D01*
X003000Y003008D02*
X001114Y003008D01*
X001155Y002910D02*
X003000Y002910D01*
X003000Y002811D02*
X001180Y002811D01*
X001180Y002713D02*
X003000Y002713D01*
X003000Y002614D02*
X001165Y002614D01*
X001124Y002516D02*
X003000Y002516D01*
X003000Y002417D02*
X001054Y002417D01*
X000945Y002319D02*
X003000Y002319D01*
X003000Y002220D02*
X000852Y002220D01*
X001016Y002122D02*
X003000Y002122D01*
X003000Y002023D02*
X001108Y002023D01*
X001149Y001925D02*
X003000Y001925D01*
X003000Y001826D02*
X001180Y001826D01*
X001180Y001728D02*
X003000Y001728D01*
X003000Y001629D02*
X001171Y001629D01*
X001130Y001531D02*
X003000Y001531D01*
X003000Y001432D02*
X001069Y001432D01*
X000971Y001334D02*
X003000Y001334D01*
X003000Y001235D02*
X000816Y001235D01*
X001001Y001137D02*
X003039Y001137D01*
X003360Y001432D02*
X007357Y001432D01*
X007456Y001531D02*
X003360Y001531D01*
X003360Y001629D02*
X007554Y001629D01*
X007653Y001728D02*
X003360Y001728D01*
X003360Y001826D02*
X007751Y001826D01*
X007850Y001925D02*
X003360Y001925D01*
X003360Y002023D02*
X007852Y002023D01*
X007875Y002122D02*
X007287Y002122D01*
X007319Y002135D02*
X007523Y002339D01*
X007634Y002606D01*
X007634Y002894D01*
X007523Y003161D01*
X007319Y003365D01*
X007053Y003476D01*
X006764Y003476D01*
X006497Y003365D01*
X006293Y003161D01*
X006183Y002894D01*
X006183Y002606D01*
X006293Y002339D01*
X006497Y002135D01*
X006764Y002024D01*
X007053Y002024D01*
X007319Y002135D01*
X007404Y002220D02*
X007936Y002220D01*
X008085Y002319D02*
X007503Y002319D01*
X007556Y002417D02*
X008033Y002417D01*
X007992Y002516D02*
X007597Y002516D01*
X007634Y002614D02*
X007954Y002614D01*
X007954Y002713D02*
X007634Y002713D01*
X007634Y002811D02*
X007954Y002811D01*
X007961Y002910D02*
X007628Y002910D01*
X007587Y003008D02*
X008001Y003008D01*
X008042Y003107D02*
X007546Y003107D01*
X007479Y003205D02*
X008109Y003205D01*
X008207Y003304D02*
X007381Y003304D01*
X007230Y003402D02*
X008358Y003402D01*
X008730Y003501D02*
X007895Y003501D01*
X007973Y003599D02*
X008730Y003599D01*
X008730Y003698D02*
X008008Y003698D01*
X008008Y003796D02*
X008730Y003796D01*
X007465Y003501D02*
X005508Y003501D01*
X005495Y003402D02*
X006586Y003402D01*
X006436Y003304D02*
X005448Y003304D01*
X005325Y003205D02*
X006337Y003205D01*
X006271Y003107D02*
X003360Y003107D01*
X003360Y003205D02*
X005035Y003205D01*
X004912Y003304D02*
X003448Y003304D01*
X003495Y003402D02*
X003773Y003402D01*
X003930Y003500D02*
X003680Y003750D01*
X003352Y003796D02*
X003323Y003796D01*
X004430Y004000D02*
X007430Y004000D01*
X006230Y003008D02*
X003360Y003008D01*
X003360Y002910D02*
X006189Y002910D01*
X006183Y002811D02*
X003360Y002811D01*
X003360Y002713D02*
X006183Y002713D01*
X006183Y002614D02*
X003360Y002614D01*
X003360Y002516D02*
X006220Y002516D01*
X006261Y002417D02*
X003360Y002417D01*
X003360Y002319D02*
X006314Y002319D01*
X006412Y002220D02*
X003360Y002220D01*
X003360Y002122D02*
X006530Y002122D01*
X008730Y000743D02*
X001180Y000743D01*
D12*
X004180Y002500D03*
X003180Y003500D03*
X003680Y003750D03*
X004430Y004000D03*
X005180Y003500D03*
X005180Y004750D03*
X007680Y003750D03*
X008180Y002000D03*
X005180Y000900D03*
M02*
