G75*
G70*
%OFA0B0*%
%FSLAX24Y24*%
%IPPOS*%
%LPD*%
%AMOC8*
5,1,8,0,0,1.08239X$1,22.5*
%
%ADD10C,0.0000*%
D10*
X000180Y000250D02*
X000180Y005250D01*
X009180Y005250D01*
X009180Y000250D01*
X000180Y000250D01*
X006632Y002750D02*
X006634Y002783D01*
X006640Y002815D01*
X006649Y002846D01*
X006662Y002876D01*
X006679Y002904D01*
X006699Y002930D01*
X006722Y002954D01*
X006747Y002974D01*
X006775Y002992D01*
X006804Y003006D01*
X006835Y003016D01*
X006867Y003023D01*
X006900Y003026D01*
X006933Y003025D01*
X006965Y003020D01*
X006996Y003011D01*
X007027Y002999D01*
X007055Y002983D01*
X007082Y002964D01*
X007106Y002942D01*
X007127Y002917D01*
X007146Y002890D01*
X007161Y002861D01*
X007172Y002831D01*
X007180Y002799D01*
X007184Y002766D01*
X007184Y002734D01*
X007180Y002701D01*
X007172Y002669D01*
X007161Y002639D01*
X007146Y002610D01*
X007127Y002583D01*
X007106Y002558D01*
X007082Y002536D01*
X007055Y002517D01*
X007027Y002501D01*
X006996Y002489D01*
X006965Y002480D01*
X006933Y002475D01*
X006900Y002474D01*
X006867Y002477D01*
X006835Y002484D01*
X006804Y002494D01*
X006775Y002508D01*
X006747Y002526D01*
X006722Y002546D01*
X006699Y002570D01*
X006679Y002596D01*
X006662Y002624D01*
X006649Y002654D01*
X006640Y002685D01*
X006634Y002717D01*
X006632Y002750D01*
X008404Y002750D02*
X008406Y002783D01*
X008412Y002815D01*
X008421Y002846D01*
X008434Y002876D01*
X008451Y002904D01*
X008471Y002930D01*
X008494Y002954D01*
X008519Y002974D01*
X008547Y002992D01*
X008576Y003006D01*
X008607Y003016D01*
X008639Y003023D01*
X008672Y003026D01*
X008705Y003025D01*
X008737Y003020D01*
X008768Y003011D01*
X008799Y002999D01*
X008827Y002983D01*
X008854Y002964D01*
X008878Y002942D01*
X008899Y002917D01*
X008918Y002890D01*
X008933Y002861D01*
X008944Y002831D01*
X008952Y002799D01*
X008956Y002766D01*
X008956Y002734D01*
X008952Y002701D01*
X008944Y002669D01*
X008933Y002639D01*
X008918Y002610D01*
X008899Y002583D01*
X008878Y002558D01*
X008854Y002536D01*
X008827Y002517D01*
X008799Y002501D01*
X008768Y002489D01*
X008737Y002480D01*
X008705Y002475D01*
X008672Y002474D01*
X008639Y002477D01*
X008607Y002484D01*
X008576Y002494D01*
X008547Y002508D01*
X008519Y002526D01*
X008494Y002546D01*
X008471Y002570D01*
X008451Y002596D01*
X008434Y002624D01*
X008421Y002654D01*
X008412Y002685D01*
X008406Y002717D01*
X008404Y002750D01*
M02*
