G75*
G70*
%OFA0B0*%
%FSLAX24Y24*%
%IPPOS*%
%LPD*%
%AMOC8*
5,1,8,0,0,1.08239X$1,22.5*
%
%ADD10C,0.0098*%
%ADD11R,0.0925X0.0701*%
%ADD12R,0.0276X0.0354*%
%ADD13R,0.0315X0.0472*%
%ADD14R,0.0394X0.0433*%
%ADD15R,0.1102X0.0709*%
%ADD16R,0.0709X0.1102*%
%ADD17R,0.0709X0.1181*%
%ADD18R,0.1181X0.1181*%
%ADD19C,0.0740*%
%ADD20C,0.0100*%
%ADD21C,0.0160*%
%ADD22C,0.0396*%
D10*
X003708Y001830D02*
X003708Y002008D01*
X003865Y002008D02*
X003865Y001830D01*
X004023Y001830D02*
X004023Y002008D01*
X004180Y002008D02*
X004180Y001830D01*
X004337Y001830D02*
X004337Y002008D01*
X004495Y002008D02*
X004495Y001830D01*
X004652Y001830D02*
X004652Y002008D01*
X004652Y002992D02*
X004652Y003170D01*
X004495Y003170D02*
X004495Y002992D01*
X004337Y002992D02*
X004337Y003170D01*
X004180Y003170D02*
X004180Y002992D01*
X004023Y002992D02*
X004023Y003170D01*
X003865Y003170D02*
X003865Y002992D01*
X003708Y002992D02*
X003708Y003170D01*
D11*
X004180Y002500D03*
D12*
X002686Y002750D03*
X002174Y002750D03*
X002174Y002000D03*
X002686Y002000D03*
X002686Y001500D03*
X002174Y001500D03*
X002174Y000750D03*
X002686Y000750D03*
X004174Y005000D03*
X004686Y005000D03*
D13*
X004784Y004500D03*
X004076Y004500D03*
D14*
X002430Y004585D03*
X002430Y003915D03*
D15*
X005727Y002750D03*
D16*
X005924Y001648D03*
X005924Y003852D03*
D17*
X006908Y004404D03*
X006908Y001096D03*
D18*
X008483Y000900D03*
X008483Y004600D03*
D19*
X000680Y000750D03*
X000680Y001750D03*
X000680Y002750D03*
X000680Y003750D03*
X000680Y004750D03*
D20*
X002265Y004750D01*
X002430Y004585D01*
X002515Y004500D01*
X004076Y004500D01*
X004023Y004447D01*
X004023Y003081D01*
X004180Y003081D01*
X004337Y003081D02*
X004337Y003907D01*
X004430Y004000D01*
X003680Y003750D02*
X003865Y003435D01*
X003865Y003081D01*
X003708Y003081D02*
X003208Y003500D01*
X003180Y003500D01*
X002930Y003250D02*
X002430Y003915D01*
X002930Y003250D02*
X003430Y002750D01*
X003430Y001700D01*
X003865Y001700D01*
X003865Y001919D01*
X003708Y001919D02*
X003708Y002500D01*
X004180Y002500D01*
X004652Y002500D01*
X004652Y003081D01*
X004495Y003081D02*
X004495Y003565D01*
X005680Y004750D01*
X006562Y004750D01*
X006908Y004404D01*
X007680Y003750D02*
X007680Y002250D01*
X006908Y001478D01*
X006908Y001096D01*
X008180Y001750D02*
X008483Y001447D01*
X008483Y000900D01*
X008180Y001750D02*
X008180Y002000D01*
X008180Y004297D01*
X008483Y004600D01*
X005180Y004750D02*
X004686Y005000D01*
X004686Y004598D01*
X004784Y004500D01*
X004076Y004500D02*
X004082Y004854D01*
X004174Y005000D01*
X004180Y004994D01*
X005180Y003500D02*
X005180Y003297D01*
X005727Y002750D01*
X004337Y002343D02*
X004180Y002500D01*
X004337Y002343D02*
X004337Y001919D01*
X004495Y001919D02*
X004495Y001000D01*
X003186Y001000D01*
X002686Y001500D01*
X002174Y001500D02*
X001924Y001750D01*
X001680Y001750D01*
X000680Y001750D01*
X001924Y001750D02*
X002174Y002000D01*
X002686Y002000D02*
X003436Y001250D01*
X004180Y001250D01*
X004180Y001919D01*
X004023Y001919D02*
X004023Y001500D01*
X003430Y001500D01*
X003180Y001750D01*
X003180Y002500D01*
X002930Y002750D01*
X002686Y002750D01*
X002680Y002750D01*
X002174Y002750D02*
X000680Y002750D01*
X000680Y000750D02*
X002174Y000750D01*
X002686Y000750D02*
X004652Y000750D01*
X004652Y001919D01*
D21*
X004862Y001994D02*
X005410Y001994D01*
X005410Y002152D02*
X004823Y002152D01*
X004823Y002134D02*
X004823Y002420D01*
X004260Y002420D01*
X004260Y002580D01*
X004823Y002580D01*
X004823Y002838D01*
X004830Y002846D01*
X004856Y002884D01*
X004873Y002925D01*
X004882Y002970D01*
X004882Y003081D01*
X004882Y003192D01*
X004873Y003236D01*
X004856Y003278D01*
X004830Y003315D01*
X004799Y003347D01*
X004761Y003372D01*
X004719Y003390D01*
X004705Y003393D01*
X004705Y003478D01*
X004839Y003612D01*
X004822Y003571D01*
X004822Y003429D01*
X004876Y003297D01*
X004977Y003196D01*
X004989Y003192D01*
X005016Y003164D01*
X005016Y002329D01*
X005110Y002236D01*
X005410Y002236D01*
X005410Y001030D01*
X005503Y000936D01*
X006345Y000936D01*
X006394Y000986D01*
X006394Y000730D01*
X004862Y000730D01*
X004862Y002006D01*
X004862Y002007D01*
X004862Y002095D01*
X004823Y002134D01*
X004823Y002311D02*
X005035Y002311D01*
X005016Y002469D02*
X004260Y002469D01*
X004100Y002469D02*
X003640Y002469D01*
X003640Y002420D02*
X003640Y002580D01*
X004100Y002580D01*
X004100Y002420D01*
X003640Y002420D01*
X004823Y002628D02*
X005016Y002628D01*
X005016Y002786D02*
X004823Y002786D01*
X004877Y002945D02*
X005016Y002945D01*
X004882Y003081D02*
X004705Y003081D01*
X004882Y003081D01*
X004882Y003103D02*
X005016Y003103D01*
X004912Y003262D02*
X004862Y003262D01*
X004826Y003420D02*
X004705Y003420D01*
X004805Y003579D02*
X004825Y003579D01*
X004705Y003081D02*
X004705Y003081D01*
X004862Y001835D02*
X005410Y001835D01*
X005410Y001677D02*
X004862Y001677D01*
X004862Y001518D02*
X005410Y001518D01*
X005410Y001360D02*
X004862Y001360D01*
X004862Y001201D02*
X005410Y001201D01*
X005410Y001043D02*
X004862Y001043D01*
X004862Y000884D02*
X006394Y000884D01*
X005122Y004489D02*
X005122Y004500D01*
X005122Y004760D01*
X005119Y004770D01*
X005403Y004770D01*
X005122Y004489D01*
X005122Y004500D02*
X004784Y004500D01*
X005122Y004500D01*
X005122Y004530D02*
X005163Y004530D01*
X005122Y004688D02*
X005321Y004688D01*
X004784Y004500D02*
X004784Y004500D01*
D22*
X005180Y004750D03*
X004430Y004000D03*
X003680Y003750D03*
X003180Y003500D03*
X004180Y002500D03*
X005180Y003500D03*
X007680Y003750D03*
X008180Y002000D03*
X005180Y000900D03*
M02*
